# xmcd
#
# Track frame offsets:
#	150
#	13792
#	20682
#	33707
#	47539
#	62669
#	78216
#	93731
#	108413
#	121437
#	135961
#	150046
#	163391
#	178335
#	192244
#	207316
#	220948
#	234155
#	248099
#	262654
#
# Disc length: 3692 seconds
#
# Revision: 1
# Processed by: cddbd v1.4PL0 Copyright (c) Steve Scherf et al.
# Submitted via: audiograbber 1.82.01
#
DISCID=090e6a14
DTITLE=Billie Holiday - The Essential 2
DYEAR=2002
DGENRE=Oldies
TTITLE0=God Bless The Child
TTITLE1=I'll Get By
TTITLE2=Them There Eyes
TTITLE3=Some Other Spring
TTITLE4=These Foolish Things
TTITLE5=Don't Explain
TTITLE6=Yesterdays
TTITLE7=Any Old Time
TTITLE8=I Gotta Right To Sing The Blues
TTITLE9=My Last Affair
TTITLE10=Moanin' Low
TTITLE11=That Ole Devil Called Love
TTITLE12=I Cried For You
TTITLE13=The Way You Look Tonight
TTITLE14=Pennies From Heaven
TTITLE15=I Cover The Waterfont
TTITLE16=A Sailboat In The Moonlight
TTITLE17=Long Gone Blues
TTITLE18=This Years Kisses
TTITLE19=Carelessly
EXTD=
EXTT0=
EXTT1=
EXTT2=
EXTT3=
EXTT4=
EXTT5=
EXTT6=
EXTT7=
EXTT8=
EXTT9=
EXTT10=
EXTT11=
EXTT12=
EXTT13=
EXTT14=
EXTT15=
EXTT16=
EXTT17=
EXTT18=
EXTT19=
PLAYORDER=
